<?xml version="1.0" encoding="iso-8859-1"?>
<!-- Generator: Adobe Illustrator 16.0.0, SVG Export Plug-In . SVG Version: 6.00 Build 0)  -->
<!DOCTYPE svg PUBLIC "-//W3C//DTD SVG 1.1//EN" "http://www.w3.org/Graphics/SVG/1.1/DTD/svg11.dtd">
<svg xmlns="http://www.w3.org/2000/svg" xmlns:xlink="http://www.w3.org/1999/xlink" version="1.1" id="Capa_1" x="0px" y="0px" width="512px" height="512px" viewBox="0 0 40.876 40.876" style="enable-background:new 0 0 40.876 40.876;" xml:space="preserve">
<g>
	<path d="M21.938,19.312v-2.463c1.131-0.557,1.917-1.709,1.917-3.055c0-1.888-1.529-3.417-3.417-3.417   c-1.887,0-3.417,1.529-3.417,3.417c0,1.346,0.786,2.499,1.917,3.055v2.463c-6.002,0.743-10.667,5.864-10.667,12.063v8.001   c0,0.829,0.671,1.5,1.5,1.5h8.146c0.829,0,1.5-0.671,1.5-1.5v-6.5h2.042v6.5c0,0.829,0.67,1.5,1.5,1.5h8.146   c0.829,0,1.5-0.671,1.5-1.5v-8.001C32.605,25.175,27.94,20.055,21.938,19.312z M29.605,37.876h-5.146v-6.5   c0-0.829-0.672-1.5-1.5-1.5h-5.042c-0.829,0-1.5,0.671-1.5,1.5v6.5h-5.146v-6.501c0-4.542,3.325-8.312,7.667-9.031v3.698h3v-3.698   c4.342,0.719,7.667,4.489,7.667,9.031V37.876z M29.563,13.792h-3c0-3.377-2.748-6.125-6.125-6.125s-6.125,2.748-6.125,6.125h-3   c0-5.032,4.094-9.125,9.125-9.125C25.468,4.667,29.563,8.762,29.563,13.792z M9.646,13.793h-3C6.646,6.188,12.834,0,20.438,0   C28.042,0,34.23,6.188,34.23,13.793h-3C31.23,7.842,26.389,3,20.438,3S9.646,7.842,9.646,13.793z" fill="#006DF0"/>
</g>
<g>
</g>
<g>
</g>
<g>
</g>
<g>
</g>
<g>
</g>
<g>
</g>
<g>
</g>
<g>
</g>
<g>
</g>
<g>
</g>
<g>
</g>
<g>
</g>
<g>
</g>
<g>
</g>
<g>
</g>
</svg>
